<svg version="1.1" id="Layer_1" xmlns="http://www.w3.org/2000/svg" x="0" y="0" viewBox="0 0 1303.6 274.6" style="enable-background:new 0 0 1303.6 274.6" xml:space="preserve"><style>.st0{fill:#303c42}</style><path class="st0" d="m136.6 93.6-7.5 30.1c8.5 2.1 34.7 10.8 39-6.2 4.4-17.8-23-21.8-31.5-23.9z"/><path class="st0" d="M170.5 4.1C97-14.2 22.5 30.5 4.2 104.1c-18.3 73.5 26.4 148 99.9 166.3 73.6 18.3 148-26.4 166.4-99.9C288.8 96.9 244 22.4 170.5 4.1zm27.3 113.6c-2 13.4-9.4 19.8-19.2 22.1 13.5 7 20.4 17.8 13.8 36.5-8.1 23.2-27.4 25.2-53.1 20.3l-6.2 25-15.1-3.8 6.1-24.6c-3.9-1-7.9-2-12-3.1l-6.2 24.8-15-3.8 6.2-25c-3.5-.9-7.1-1.9-10.7-2.8l-19.6-4.9 7.5-17.2s11.1 2.9 10.9 2.7c4.3 1.1 6.2-1.7 6.9-3.6l9.9-39.5c.6.1 1.1.3 1.6.4-.6-.2-1.1-.4-1.6-.5l7-28.2c.2-3.2-.9-7.2-7-8.8.2-.2-10.9-2.7-10.9-2.7l4-16.1 20.8 5.2v.1c3.1.8 6.3 1.5 9.6 2.3l6.2-24.7 15.1 3.8-6 24.3c4 .9 8.1 1.9 12.1 2.8l6-24.1 15.1 3.8-6.4 24.6c19 6.6 32.9 16.4 30.2 34.7zM1294.2 107.2c-10.3-15.7-28.9-23.5-55.9-23.5-9.2 0-17.5.4-24.7 1.2-7.3.8-13.9 1.8-19.7 3.1-5.9 1.2-11.2 2.6-15.9 4.1-4.7 1.5-9.1 2.9-12.9 4l-41.9 173.6h51.5l33.6-140.7c6.9-1.4 13.7-2.1 20.4-2.1 6.9 0 12 1.3 15.4 4 3.3 2.7 5.5 6.2 6.4 10.4 1 4.3 1 9.2.2 14.9-.8 5.7-1.9 11.5-3.3 17.5l-22.8 96.1h51.5l23.5-98.2c6.7-27.2 4.9-48.7-5.4-64.4zM1076.6 87.9l-43.2 181.9h51.2l43.6-181.9zM1090.2 59.3c5.7 4.3 12.2 6.4 19.3 6.4 4.9 0 9.4-.9 13.7-2.8 4.3-1.8 8-4.3 11.2-7.4 3.2-3.1 5.8-6.8 7.8-11.1 1.9-4.3 3-8.8 3-13.7 0-8.7-2.9-15.3-8.7-19.5-5.8-4.3-12.2-6.4-19.4-6.4-4.8 0-9.4.9-13.6 2.8-4.2 1.9-8 4.3-11.2 7.4-3.2 3.1-5.8 6.8-7.8 11.1s-2.9 8.8-2.9 13.6c-.1 8.9 2.8 15.4 8.6 19.6zM520.6 59.3c5.7 4.3 12.2 6.4 19.4 6.4 4.8 0 9.4-.9 13.7-2.8 4.2-1.8 8-4.3 11.2-7.4 3.2-3.1 5.8-6.8 7.8-11.1s2.9-8.8 2.9-13.7c0-8.7-2.9-15.3-8.6-19.5-5.8-4.3-12.2-6.4-19.3-6.4-4.9 0-9.4.9-13.7 2.8-4.3 1.9-8 4.3-11.2 7.4-3.2 3.1-5.8 6.8-7.8 11.1s-3 8.9-3 13.7c0 8.8 2.9 15.3 8.6 19.5z"/><path class="st0" d="M125.3 138.8 117 172c10.2 2.5 41.7 12.7 46.4-6.1 4.8-19.5-27.9-24.5-38.1-27.1zM808.1 126.6c7.2 0 13.2.7 18.2 2.3 5 1.5 9.7 3.1 14.4 5l17.7-40.1c-6.7-3.2-14.1-5.8-22.3-7.8-8.2-2-17.4-3-27.8-3-16.6 0-31.7 3-45.1 9-13.5 6-25 14.2-34.4 24.5-9.5 10.4-16.7 22.5-21.8 36.3-5.1 13.8-7.6 28.6-7.6 44.3 0 10.4 1.5 20.3 4.3 29.7 2.9 9.5 7.5 17.7 14 24.7s14.6 12.6 24.5 16.8c9.9 4.1 22 6.2 36.3 6.2 10.8 0 20.2-1 28-2.9 7.8-2 15-4.3 21.4-6.8l-3.8-41.1c-4.9 2.1-10.4 3.8-16.6 5.2-6.2 1.4-12.7 2.1-19.4 2.1-13.6 0-22.9-3.6-28-10.9-5.1-7.3-7.6-16.8-7.6-28.5 0-19.8 5-35.6 15.1-47.4 9.9-11.7 23.4-17.6 40.5-17.6zM1011.1 104.1c-5.9-6.7-13.4-11.9-22.5-15.6-9.1-3.7-19.7-5.6-31.7-5.6-16.3 0-30.9 3.5-43.5 10.5-12.7 7.1-23.4 16.1-32.1 27.2-8.8 11.1-15.4 23.5-19.9 37.3-4.5 13.8-6.7 27.7-6.7 41.5 0 11 1.5 21.1 4.5 30.2 3 9.1 7.4 17 13.3 23.7 5.9 6.7 13.3 11.9 22.3 15.6 9 3.7 19.6 5.5 31.8 5.5 16.8 0 31.7-3.5 44.4-10.6 12.8-7 23.5-16.1 32-27.1 8.5-11.1 15-23.5 19.4-37.3 4.4-13.9 6.6-27.7 6.6-41.5 0-11.1-1.5-21.2-4.5-30.2-3.1-9-7.6-16.9-13.4-23.6zm-36.3 81.8c-2 8-4.9 15.3-8.8 22-3.9 6.7-8.8 12.2-14.5 16.6-5.8 4.4-12.4 6.6-20.1 6.6-9.7 0-16.4-3.2-20.1-9.7-3.7-6.5-5.5-15.5-5.5-27 0-7.2 1-14.7 2.9-22.6 2-7.9 4.9-15.3 8.8-22 3.9-6.7 8.7-12.2 14.5-16.6 5.7-4.4 12.4-6.6 20-6.6 9.7 0 16.4 3.2 20.1 9.7 3.7 6.5 5.6 15.5 5.6 27 0 7.1-1 14.7-2.9 22.6zM618.8 193.7l15.2-63.6h57l10.4-42.2H644l13.2-53.6-53.6 8.3-33.9 143.2c-2.8 11.8-4.4 22.9-4.8 33.5-.5 10.6 1.2 20 4.8 28.2 3.7 8.2 9.9 14.7 18.7 19.4 8.8 4.7 21.1 7.1 37 7.1 11.1 0 20.6-.9 28.7-2.8 8.1-1.8 15.6-4 22.5-6.6l-3.8-39.4c-5.3 1.9-10.5 3.3-15.7 4.3-5.2 1-10.6 1.6-16.1 1.6-6.7 0-11.8-.9-15.4-2.8-3.6-1.8-6.1-4.4-7.4-7.8-1.4-3.3-2-7.3-1.7-11.9.1-4.7.9-9.6 2.3-14.9zM463.9 269.8h51.2l43.6-181.9h-51.6zM444 105.8c-5.4-6.7-12-12-20.1-15.9-8-3.9-17.6-5.9-28.7-5.9-5.3 0-10.2.6-14.9 1.7-4.6 1.2-9.2 2.8-13.8 4.8l21.4-89.2-53.6 8.3L274.5 261c6.7 3.2 13.8 5.8 21.3 7.6 7.5 1.9 14.6 3.2 21.3 4.2 6.7.9 12.6 1.4 17.8 1.5 5.2.1 8.8.2 10.9.2 16.1 0 31.1-3.1 44.9-9.2 13.8-6.1 25.8-14.4 36-24.9 10.2-10.5 18.2-22.8 24-37 5.9-14.2 8.8-29.2 8.8-45.1 0-10.4-1.3-20-3.8-29-2.5-8.9-6.4-16.8-11.7-23.5zm-40.1 82.3c-3 8.3-7.1 15.7-12.3 22.3-5.2 6.6-11.4 11.8-18.5 15.7-7.1 3.9-14.7 5.9-22.8 5.9h-6.2c-1.6 0-3-.1-4.2-.2-1.1-.1-2.2-.3-3.3-.5-1-.2-2.3-.4-3.6-.7l22.8-94.7c4.2-3.7 8.8-6.1 14-7.3 5.2-1.1 9.4-1.7 12.6-1.7 9.9 0 16.7 3.1 20.4 9.3 3.7 6.2 5.5 14.9 5.5 25.9.1 9.1-1.4 17.7-4.4 26z"/></svg>