<svg viewBox="0 0 400 400" xmlns="http://www.w3.org/2000/svg"><path d="M255.87 176.4c0-8.64-.04-16.79.01-24.94.15-27.42.28-54.84.56-82.26.05-5.13.46-10.29 1.23-15.36.72-4.75 3.69-7.16 7.76-7.49 2.07-.17 3.2.39 3.93 2.53 3.38 9.86 4.65 20.08 4.58 30.39-.14 19.24-.8 38.48-1.07 57.72-.17 12.64-.03 25.28-.03 38.43 5.02.27 10.32.69 15.62.82 10.39.26 20.79.06 31.16.65 5.01.29 9.01 3.1 10.91 8.2.82 2.19.47 3.72-1.37 5.26-6.5 5.45-14.14 6.31-22.13 5.72-11.38-.83-22.75-1.61-34.56.61 0 .92.01 2.11 0 3.3-.22 32.68-.31 65.36-.73 98.04-.18 13.94-2.09 27.64-8.27 40.43-2.01 4.15-4.8 6.96-9.11 9.14-11.44 5.79-23.03 9.56-36.14 8.99-13.16-.57-26.38.48-39.55.12-11.39-.31-22.16-4.04-32.7-8.17-1.03-.4-1.87-1.54-2.56-2.51-8.94-12.6-13.29-26.9-13.85-42.1-.63-17.21-.09-34.46-.32-51.69-.24-18.01-.78-36.02-1.2-54.03-.01-.54-.07-1.08-.1-1.59-9.02-1.87-17.9-1.19-26.82-.93-8.12.24-16.34.05-24.4-.93-6.5-.79-9.76-6.21-8.99-12.42.25-2.04 1-3.29 3.18-3.49 8.33-.78 16.64-1.97 24.98-2.3 10.15-.4 20.34-.1 30.86-.1.16-1.74.42-3.25.42-4.75-.05-26.63-.15-53.25-.21-79.88-.03-14.01.09-28 5.18-41.36.66-1.73 1.63-3.34 2.52-5.14 6.8 3.07 9.51 8.23 9.51 15.1 0 17.46-.09 34.91.02 52.37.12 19.58.42 39.17.65 58.75.01.66.08 1.32.15 2.39 36.79.83 73.53 1.65 110.88 2.48zm-110.25 18.62c-.05.87-.11 1.52-.11 2.16.01 33.47-.12 66.95.16 100.42.06 7.32 1.21 14.69 2.53 21.92 1.64 9 6.74 15.08 16.31 16.57 1.64.26 3.22.91 4.85 1.28 16.21 3.63 32.61 4.02 49.06 2.51 9.85-.9 19.49-2.91 28.16-8.01 1.16-.68 2.26-2.17 2.59-3.48 3.39-13.39 5.21-26.98 5.18-40.82-.03-13.99-.6-28.02.31-41.96.99-15.24.6-30.41.22-45.62-.04-1.63-.24-3.26-.37-4.96-36.38-.01-72.41-.01-108.89-.01z" fill="#010103"/><g fill="#fcfbfa"><path d="M377.9 391.2c-.2.3-.4.5-.6.8-.7-.6-1.4-1-2.2-1.5.2-.3.4-.5.5-.8.6.4 1.4.8 2.3 1.5zm-1.8 6.1c-.2-.2-.5-.4-.9-.6.4-.6.8-1.2 1.2-1.9s.7-1.3.9-1.9c.3.3.5.5.8.7-.7 1.3-1.4 2.6-2 3.7zm2.2-9c-.3.3-.5.5-.6.8-.6-.6-1.3-1.1-2-1.5.3-.3.5-.5.6-.7.6.5 1.3.9 2 1.4zm.3.2v-.9h6.5c-.3 1.3-.6 2.5-1 3.6s-.9 2.1-1.4 3c.4.5 1 1 1.6 1.4s1.2.8 1.9 1.1c-.3.2-.5.4-.8.8-.4-.3-1-.7-1.6-1.2s-1.2-1.1-1.6-1.6c-.5.6-1.1 1.1-1.7 1.6s-1.4.9-2.1 1.4c-.1-.3-.3-.5-.7-.8.6-.2 1.2-.5 1.9-1s1.4-1.1 2-1.8c-.5-.8-.9-1.6-1.2-2.5s-.6-2-.8-3.2c-.4.1-.7.1-1 .1zm2.5 2.7c.3 1 .7 1.7 1 2.2.3-.5.6-1.1 1-2s.6-1.9.9-3h-3.6c.1.9.3 1.8.7 2.8zM396.5 388.5v5.1h1.5v.9H387.2v-.9h1.3v-5.1h2.4v-1.7h1c0 .3-.1.8-.1 1.7h1.5v-1.7h1c0 .3-.1.9-.1 1.7zm-8.2 9.2c-.2-.3-.5-.5-.8-.8.8-.3 1.4-.6 1.9-.9s1-.7 1.4-1.1c.3.3.6.5.9.8-1.6 1-2.8 1.6-3.4 2zm2.6-6.8v-1.6h-1.5v1.6zm0 2.7v-1.9h-1.5v1.9zm2.4-2.7v-1.6h-1.5v1.6zm0 2.7v-1.9h-1.5v1.9zm.2 2 .7-.8c.4.2.9.5 1.6.8s1.3.7 1.8 1l-.8.8c-.4-.3-1.5-1-3.3-1.8zm2-4.7v-1.6h-1.4v1.6zm0 2.7v-1.9h-1.4v1.9z"/></g></svg>