<svg viewBox="0 0 400 400" xmlns="http://www.w3.org/2000/svg"><path d="M6.8 9.5c.6.3 1.3.7 2.1 1.1-.4.4-.7.8-.9 1.2-.7-.4-1.3-.8-1.8-1.1s-1.1-.6-1.6-.8c.2-.4.5-.8.7-1.2.4.2.8.5 1.5.8zm.9 6.9c-.3.6-.5 1.1-.7 1.7s-.4 1.1-.6 1.7c-.6-.4-1.1-.7-1.6-1 .7-1 1.2-1.8 1.5-2.4.3-.5.6-1.1.8-1.7.3-.6.5-1.2.8-1.8.3.3.8.6 1.3.8-.7 1.3-1.2 2.2-1.5 2.7zm.1-11c.4.3 1 .7 1.7 1.1-.5.2-.8.6-1.1 1.1-.5-.6-1-1-1.4-1.2s-.9-.6-1.5-.8c.2-.4.5-.7.9-1.1.5.3.9.6 1.4.9zm10.5 13.1c1 .4 2 .6 3.1.7-.4.4-.7.8-.8 1.3-.9-.2-1.9-.6-3-.9-1-.4-2-.9-2.8-1.6-.5.4-1.1.9-1.9 1.3s-1.9.9-3.3 1.2c-.1-.3-.5-.8-1.1-1.3 1 0 2.1-.3 3.2-.8 1.2-.5 1.9-1 2.3-1.7h-3.2c-.4 0-1 0-2 .1v-1.2c1 0 1.7.1 2 .1h3.3v-1h-2.3c-.2 0-.9 0-2 .1v-1.2c1.2 0 1.9.1 2 .1h2.3v-.8H10c0-.7.1-1.2.1-1.6 0-.5 0-1.1-.1-1.8h4.1v-.7h-2.5c0-.6.1-1.1.1-1.6v-.6h-.5c-.4 0-1 0-1.8.1V5.4c1.2 0 1.9.1 2.1.1h.2c0-.3 0-.8-.1-1.4H13c0 .6-.1 1-.1 1.4h3.4c0-.4 0-.8-.1-1.3h1.5c0 .4-.1.9-.1 1.3.7 0 1.5 0 2.5-.1v1.2c-1 0-1.8-.1-2.5-.1v.6c0 .3 0 .8.1 1.5h-2.5v.8h4.1c0 .7-.1 1.3-.1 1.8s0 1 .1 1.5h-4.1v.8h1.4c.8 0 1.8 0 2.9-.1v1.2c-1 0-1.9-.1-2.8-.1h-1.5v1h3.2c.3 0 1 0 2.1-.1v1.2c-1.1 0-1.8-.1-2.1-.1H15l-.1.1c1.4 1 2.4 1.5 3.4 1.9zm-4.1-6.7v-1.3h-2.7v1.3zm2.2-4.1V6.6H13v1.1zm1.9 4.1v-1.3h-2.8v1.3zM37 6.7v7.7c1 0 1.8 0 2.2-.1v1.3c-.6 0-1.5-.1-2.5-.1H24.8c-.7 0-1.3 0-1.8.1v-1.3c.5 0 1.1.1 2 .1V9.2c0-1 0-1.8-.1-2.5h3.7c0-1.3 0-2.1-.1-2.5H30c0 .4-.1 1.3-.1 2.5h2.2c0-1.2 0-2.1-.1-2.6h1.5c0 .4-.1 1.3-.1 2.6zM24.7 20.4c-.3-.4-.7-.8-1.1-1.1 1.1-.4 2.1-.9 2.9-1.3.8-.5 1.5-1 2.1-1.6.4.4.9.8 1.3 1.1-2.5 1.4-4.2 2.4-5.2 2.9zm3.9-10.1V7.9h-2.2v2.4zm0 4.1v-2.9h-2.2v2.9zm3.5-4.1V7.9h-2.2v2.4zm0 4.1v-2.9h-2.2v2.9zm.4 2.9 1-1.1c.6.3 1.4.7 2.5 1.3s2 1.1 2.7 1.5c-.4.4-.8.8-1.1 1.3-.8-.8-2.5-1.7-5.1-3zm3.1-7V7.9h-2.1v2.4zm0 4.1v-2.9h-2.1v2.9z" fill="#fafbfa"/><path d="M257.45 25c11.08 1.48 19.11 7.14 23.73 16.82 3.3 6.91 5.48 14.37 8.05 21.62 6.32 17.77 7.96 36.4 10.1 54.96 1.6 13.88 3.63 27.71 5.52 41.56 5.75 41.99 2.55 83.13-10.37 123.65-6.6 20.71-16.72 39.54-28.08 57.72-7.22 11.55-18.48 19.21-31.55 23.33-11.49 3.63-23.26 6.36-34.9 9.52-2.24.61-3.82.21-5.48-1.72-6.88-8-15.66-13.62-24.61-18.98-13.34-8-23.36-19.31-30.38-32.89-6.86-13.28-12.9-27.04-18.46-40.93-14.78-36.92-24-75.36-29.74-114.64-3.32-22.73-5-45.6-5.18-68.57-.01-1.31.33-2.66.72-3.92 4.3-13.64 8.69-27.25 12.93-40.92.67-2.17 1.7-3.52 3.96-3.84.11-.02.22-.05.33-.08 8.53-2.68 8.47-2.64 13.31 4.83 9.6 14.84 14.85 31.28 15.22 48.73.58 26.84-.19 53.7-.28 80.55-.05 13.96 1.56 27.87 6.08 41 8.15 23.65 16.58 47.25 26.26 70.31 6.6 15.73 15.6 30.46 26.26 43.97 4.04 5.11 8.64 9.67 14.67 12.54 2.36 1.12 4.45.95 7.01.26 11.05-2.99 18.78-9.53 24.57-19.45 6.19-10.61 13.37-20.66 20.46-30.72 10.21-14.5 14.54-30.88 15.48-48.22.94-17.44 2.29-34.78 5-52.06 1.43-9.13 1.46-18.65-2.34-27.45-5.72-13.25-6.33-27.31-7.32-41.36-1.07-15.18-2.28-30.35-3.48-45.53-.1-1.2-.56-2.38-.96-3.54-2.56-7.39-5.15-14.77-7.74-22.15-4.05-11.59-1.68-22.9 1.21-34.4z" fill="#010103"/></svg>