<svg viewBox="0 0 400 400" xmlns="http://www.w3.org/2000/svg"><path d="M139.98 29.28c6.09-.71 6.35-.76 7.3 4.85 3.52 20.86 6.78 41.76 4.49 63.05-.24 2.26.08 4.68.62 6.92 4.15 17.26 7.22 34.62 5.08 52.47-1.5 12.54 0 24.95.98 37.43 1.7 21.8 1.44 43.62-2.33 65.25-.39 2.22-1.86 4.23-2.54 6.42-1.02 3.34-3.05 7.01-2.43 10.1 1.93 9.62.61 18.91-.99 28.29-.25 1.47-.13 3.13.28 4.57 3.9 13.76 7.84 27.51 11.97 41.2.42 1.4 1.98 3.08 3.35 3.48 10.15 2.95 20.55 4.39 31.13 4.08 1.6-.05 3.39-.52 4.73-1.37 6.04-3.83 11.98-7.83 17.9-11.85 1.75-1.19 3.36-2.61 4.96-3.99 3.39-2.93 5.14-6.48 5.02-11.16-.4-15.72 3.92-30.77 7.15-45.94 1.97-9.27 2.8-18.23 1.25-27.78-1.19-7.32.18-15.09.7-22.64.19-2.66-.5-4.85-1.24-7.34-1.34-4.52-2.26-9.37-2.18-14.06.22-12.84 1.44-25.67 1.57-38.51.27-26.19.38-52.39-.06-78.58-.2-12.04-1.84-24.06-2.87-36.08-.84-9.77-1.1-19.46 3.01-28.7.58-1.3 1.27-2.56 1.95-3.94 4.04 1.08 5.92 3.28 7.11 7.23 1.42 4.7 4.01 9.12 6.59 13.36 1.83 3.01 2.67 5.9 2.48 9.42-.65 11.96-1.26 23.92-1.44 35.89-.08 4.99 1.3 9.99 1.41 15 .3 12.97.5 25.95.26 38.92-.13 7.11-.13 14.04 2.86 20.68.61 1.36.78 3.03.76 4.56-.54 35.58-1.5 71.17-1.57 106.75-.03 14.87-1.69 29.37-4.38 43.93-1.76 9.53-6.22 17.89-9.59 26.74-.32.84-1.17 1.74-1.99 2.07-5.7 2.28-9.54 6.47-12.31 11.75-2.17 4.15-5.59 6.71-9.96 7.87-7.76 2.06-15.51 4.49-23.43 5.51-4.66.6-9.61-1.35-14.46-1.89-2.34-.26-4.74.04-7.11.18-5.1.29-10.2.72-15.31.88-.89.03-2.02-.82-2.7-1.57-10.3-11.17-16.2-24.06-16.72-39.54-.37-10.94-1.8-21.85-2.97-32.75-.99-9.19-.55-18.28.47-27.44.98-8.77 1.85-17.61 1.8-26.42-.17-27.63-.66-55.26-1.3-82.89-.75-32.45-1.73-64.89-2.79-97.32-.17-5.13.73-9.86 2.09-14.76 1.56-5.65 1.98-11.62 2.86-17.46.23-1.62.37-3.28.54-4.87z" fill="#010100"/><g fill="#fafbfa"><path d="M6.4 11.7c-1-.8-1.9-1.6-2.9-2.3l.6-.7C5 9.4 6 10.1 7 10.9zM4.3 20c.7-2.1 1.4-4.2 2-6.4.2.1.6.3 1 .4-.7 2.3-1.3 4.4-1.9 6.4zm3-12.8c-1.1-.9-2.1-1.7-2.9-2.4l.6-.7c1 .8 2 1.5 3 2.4zm1.4-1.3V5h10.2v.9c-.9 4.2-2.3 7.3-4.1 9.4 1.3 1.4 3.2 2.7 5.7 4-.2.2-.4.5-.7.9-2.5-1.4-4.4-2.7-5.7-4.2-1.4 1.5-3.5 3-6.1 4.4l-.1-.1c-.3-.4-.5-.7-.7-.8 2.7-1.3 4.7-2.8 6.2-4.2-1.8-2.2-3-5.3-3.7-9.4zm9.2 0h-7.1c.6 3.8 1.7 6.7 3.4 8.7 1.7-2 2.9-4.8 3.7-8.7zM31.6 3.6h.9v2.3h4.1V15h1.7v.9H21.7V15h1.7V5.9h4.1V3.6h.9v2.3h3.1V3.6zm-4 13.3.6.8c-1.9.9-3.8 1.9-5.8 2.8-.2-.3-.3-.6-.5-.9 2-.9 3.9-1.8 5.7-2.7zM24.4 6.8v3.7h3.1V6.8zm0 4.5V15h3.1v-3.7zm4.1-4.5v3.7h3.1V6.8zm0 4.5V15h3.1v-3.7zm9.1 9.1c-2.1-1.1-4.1-2-5.8-2.7l.5-.8c2.2.9 4.1 1.8 5.8 2.6zM35.7 6.8h-3.1v3.7h3.1zm-3.2 4.5V15h3.1v-3.7z"/></g></svg>