<svg viewBox="0 0 400 400" xmlns="http://www.w3.org/2000/svg"><path d="M201.47 282.72c27.22-6.39 38.68-25.56 42.02-51.66-5.36-1.21-10.79-1.03-16 .63-7.33 2.33-14.5 5.19-21.74 7.82-.1.04-.2.11-.3.14-10.26 2.85-19.6 7.54-28.9 12.77-15.39 8.65-31.56 15.89-48.69 20.51-4.91 1.32-10.14 1.8-15.24 1.93-5.58.14-9.22 2.84-12.03 7.18-4 6.19-5.24 13.02-3.96 20.22.29 1.6 1.39 3.24 2.53 4.47 2.05 2.2 4.32 4.24 6.69 6.11 3.91 3.08 5.21 7.17 4.85 11.87-.08 1.04-.79 2.33-1.63 2.95-3.67 2.73-7.78 3.48-12 1.44-4.83-2.33-9.78-4.54-14.19-7.53-2.95-2-5.15-5.19-7.51-8-2.56-3.05-4.9-6.29-7.44-9.59-3.23 2.95-5.97 5.54-8.8 8.03-9.69 8.52-20.52 9.59-32.2 4.81-3.28-1.34-5.1-5.1-4.25-9.23.66-3.17 1.53-6.3 2.57-9.37.27-.81 1.39-1.67 2.27-1.87 5.33-1.24 10.81-1.94 16.03-3.53 3.19-.97 6.37-2.76 8.87-4.95 3.14-2.75 4.32-6.18 2.47-10.77-8.93-22.25-10.13-45.92-11.94-69.42-.38-4.95.49-10.03 1.15-15.01.77-5.81 4.55-8.79 9.88-11.06 6.09-2.58 9.34.68 13.75 3.79 9.63 6.79 15.75 15.57 18.8 26.84 1.66 6.14 3.78 12.17 5.95 18.15 1.74 4.82 3.4 9.77 5.96 14.15 2.08 3.57 5.36 6.47 8.28 9.5 1.65 1.71 3.52 1.61 5.74.36 10.42-5.87 21.1-11.3 31.4-17.37 5.02-2.96 10.22-4.31 15.86-4.47 3.67-.1 6.97-1.01 10.1-3.02 3.95-2.53 8.22-4.56 12.15-7.12 8.25-5.37 17.06-8.85 26.88-10.47 11.21-1.85 22.27-4.72 33.35-7.32 9.64-2.26 15.37-8.76 18.09-17.96 3.81-12.84 2.85-25.87 1.17-38.93-1.05-8.2-1.74-16.46-2.51-24.7-.27-2.91-.73-5.55-2.65-8.07-3.68-4.84-5.06-10.36-3.38-16.45 1.63-5.94 1.72-11.94.1-17.91-.52-1.91-.09-3.19 1.75-4.07 1-.48 1.99-1.11 2.75-1.9 4.16-4.28 8.33-3.39 13.11-.79 14.1 7.66 23.62 19.47 31.65 32.96 4.96 8.33 6.31 16.72 4.1 26.22-1.9 8.14-2.08 16.67-3.93 24.83-1.64 7.24-4.5 14.21-6.85 21.29-.59 1.78-1.3 3.52-2.39 6.46 6.49-.88 12.28-1.18 17.81-2.52 18.35-4.43 36.61-9.23 54.9-13.88.43-.11.85-.22 1.69-.44 1.28 6.6 2.53 13.08 3.84 19.82-9.94 1.9-19.57 3.31-28.96 5.66-7.76 1.94-15.38 4.66-22.8 7.67-7.2 2.91-14.54 4.53-22.22 4.04-10.82-.7-18.28 5.05-23.83 13.08-9.88 14.31-16.74 30.28-23.42 46.29-4.58 10.96-9.47 21.74-17.24 30.92-1.3 1.53-2.7 2.99-4.12 4.41-7.67 7.65-11.56 8.33-21.28 3.74-.62-.29-1.34-.95-1.49-1.56-1.53-6.49-2.99-13.01-4.62-20.12z" fill="#010102"/><g fill="#fcfbfa"><path d="M377.9 391.2c-.2.3-.4.5-.6.8-.7-.6-1.4-1-2.2-1.5.2-.3.4-.5.5-.8.6.4 1.4.8 2.3 1.5zm-1.8 6.1c-.2-.2-.5-.4-.9-.6.4-.6.8-1.2 1.2-1.9s.7-1.3.9-1.9c.3.3.5.5.8.7-.7 1.3-1.4 2.6-2 3.7zm2.2-9c-.3.3-.5.5-.6.8-.6-.6-1.3-1.1-2-1.5.3-.3.5-.5.6-.7.6.5 1.3.9 2 1.4zm.3.2v-.9h6.5c-.3 1.3-.6 2.5-1 3.6s-.9 2.1-1.4 3c.4.5 1 1 1.6 1.4s1.2.8 1.9 1.1c-.3.2-.5.4-.8.8-.4-.3-1-.7-1.6-1.2s-1.2-1.1-1.6-1.6c-.5.6-1.1 1.1-1.7 1.6s-1.4.9-2.1 1.4c-.1-.3-.3-.5-.7-.8.6-.2 1.2-.5 1.9-1s1.4-1.1 2-1.8c-.5-.8-.9-1.6-1.2-2.5s-.6-2-.8-3.2c-.4.1-.7.1-1 .1zm2.5 2.7c.3 1 .7 1.7 1 2.2.3-.5.6-1.1 1-2s.6-1.9.9-3h-3.6c.1.9.3 1.8.7 2.8zM396.5 388.5v5.1h1.5v.9H387.2v-.9h1.3v-5.1h2.4v-1.7h1c0 .3-.1.8-.1 1.7h1.5v-1.7h1c0 .3-.1.9-.1 1.7zm-8.2 9.2c-.2-.3-.5-.5-.8-.8.8-.3 1.4-.6 1.9-.9s1-.7 1.4-1.1c.3.3.6.5.9.8-1.6 1-2.8 1.6-3.4 2zm2.6-6.8v-1.6h-1.5v1.6zm0 2.7v-1.9h-1.5v1.9zm2.4-2.7v-1.6h-1.5v1.6zm0 2.7v-1.9h-1.5v1.9zm.2 2 .7-.8c.4.2.9.5 1.6.8s1.3.7 1.8 1l-.8.8c-.4-.3-1.5-1-3.3-1.8zm2-4.7v-1.6h-1.4v1.6zm0 2.7v-1.9h-1.4v1.9z"/></g></svg>