<svg viewBox="0 0 400 400" xmlns="http://www.w3.org/2000/svg"><g fill="#fafbfc"><path d="m342.2 3.2-6.3 9.2h6.1v1.2h-8.2v-.5L340 4h-5.7V2.8h7.8v.4zM344 13.7V2.8h3.1c1.6 0 3 .5 4.1 1.4 1.1 1 1.6 2.2 1.6 3.9s-.5 3-1.6 4-2.5 1.5-4.2 1.5h-3zm1.4-9.6v8.4h1.6c1.4 0 2.5-.4 3.2-1.1.8-.8 1.2-1.8 1.2-3.2s-.4-2.4-1.2-3.1-1.8-1-3.1-1zM356.3 2.8v10.9h-1.4V2.8zM366.6 13.2c-.8.4-1.8.6-3 .6-1.6 0-2.8-.5-3.7-1.5s-1.4-2.3-1.4-3.9c0-1.7.5-3.2 1.6-4.2s2.4-1.6 4-1.6c1 0 1.9.1 2.6.4v1.5c-.8-.4-1.6-.6-2.6-.6-1.2 0-2.2.4-3 1.2S360 7 360 8.4c0 1.3.4 2.3 1.1 3.1s1.6 1.1 2.8 1.1c1.1 0 2-.2 2.8-.7v1.3zM368.2 13c0-.3.1-.5.3-.6.2-.2.4-.3.6-.3.3 0 .5.1.7.3s.3.4.3.6-.1.5-.3.6c-.2.2-.4.3-.7.3s-.5-.1-.6-.3c-.2-.2-.3-.4-.3-.6zM381.1 13.7h-1.7l-5.5-8.4c-.2-.2-.3-.5-.4-.7 0 .2.1.8.1 1.5v7.6h-1.4V2.8h1.8l5.3 8.3c.3.4.4.6.4.8 0-.3-.1-.8-.1-1.6V2.8h1.4v10.9zM389.7 13.7h-5.8V2.8h5.6V4h-4.2v3.5h3.9v1.2h-3.9v3.7h4.4zM398.4 4.1h-3.1v9.6h-1.4V4.1h-3.1V2.8h7.7v1.3z"/></g><path d="M138.39 201.75c-10.3 1.61-19.99 2.87-29.57 4.7-12.21 2.33-24.3 5.29-36.51 7.6-3.44.65-7.4.77-10.65-.3-5.64-1.86-10.96-4.75-16.33-7.38-1.44-.71-2.98-1.82-3.76-3.17-1.19-2.07-2.82-4.85-2.24-6.68.44-1.39 4.01-2.37 6.25-2.5 26.04-1.51 52.1-2.75 77.92-6.88 4.71-.75 9.52-.94 14.82-1.44-.96-11.98-1.5-23.59-2.91-35.08-1.33-10.83-3.32-21.61-5.57-32.3-.87-4.15-3.15-8.02-4.96-11.94-1.81-3.91-.28-6.31 3.48-7.02 10.33-1.95 19.69 1.29 28.4 6.47 1.38.82 2.55 3.84 2.19 5.48-4.28 19.5-.77 39.06-.76 58.58 0 4.42.38 8.85.6 13.65 27.58-2.23 54.36-4.4 81.36-6.58.19-1.63.42-2.91.47-4.2.75-21.12 1.53-42.23 2.17-63.35.32-10.56-.84-20.82-5.83-30.48-2.82-5.46-.66-8.98 5.23-8.19 10.86 1.46 21.54 4.05 30.93 10.2 3.5 2.29 4.84 5.34 3.04 9.4-9.09 20.47-8.18 42.51-10.1 64.11-.6 6.76-1.09 13.52-1.68 20.91 8.78-.63 17.16-1.05 25.51-1.89 13.38-1.35 26.7-3.35 40.1-4.29 4.19-.3 9.04 1.07 12.72 3.19 5.57 3.2 10.61 7.48 15.42 11.8 1.66 1.49 1.97 4.49 2.9 6.81-2.04.73-4.1 2.11-6.13 2.1-28.64-.25-57.28-.69-85.92-1.07-1.81-.02-3.62 0-5.96 0-.99 11.19-1.96 22.06-2.9 32.93-1.92 22.35-3.74 44.72-5.8 67.06-.47 5.08-.56 9.45 4.86 12.16 1.31.65 1.86 2.81 2.76 4.28-1.56.66-3.1 1.81-4.7 1.91-31.19 2.07-62.39 3.95-93.57 6.12-2.26.16-4.76 1.79-6.51 3.42-2.28 2.13-4.61 3.35-6.92 1.11-2.49-2.43-5.76-5.4-6.12-8.44-1.61-13.5-2.61-27.09-3.24-40.67-1.04-23.1-1.66-46.21-2.49-70.14zm21.13 99.14c3.17-.34 5.75-.68 8.35-.9 21.52-1.77 43.05-3.56 64.58-5.21 3.16-.24 4.22-1.39 4.26-4.58.1-8.48.56-16.95.88-25.42.67-17.95 1.38-35.89 1.96-53.85.18-5.57.03-11.16.03-17.22-27.09 1.95-53.71 3.86-80.06 5.75z" fill="#010102"/></svg>