<svg viewBox="0 0 400 400" xmlns="http://www.w3.org/2000/svg"><g fill="#fafbfc"><path d="m346.9 398 5.4-7.3h-5.2v-.6h5.9v.6l-5.4 7.2h5.5l-.1.6h-6.2v-.5zM354.7 390.1h2.8c2.3 0 3.9 1.6 3.9 4.1s-1.6 4.3-3.9 4.3h-2.8zm.6 7.8h2c2.2 0 3.3-1.6 3.3-3.6 0-1.8-1-3.6-3.3-3.6h-2zM363.9 390.1v8.4h-.6v-8.4zM372.5 396.3c-.4 1.3-1.4 2.3-3.2 2.3-2.4 0-3.7-1.9-3.7-4.3 0-2.3 1.2-4.3 3.7-4.3 1.8 0 2.9 1 3.2 2.4h-.6c-.4-1.1-1.1-1.8-2.5-1.8-2.1 0-3 1.9-3 3.7s.9 3.7 3 3.7c1.4 0 2.1-.7 2.5-1.7zM373.8 398.5V397h.6v1.5zM376.2 398.5v-8.4h1c1.3 2 4.4 6.7 4.9 7.6-.1-1.2-.1-2.4-.1-3.8v-3.8h.7v8.4h-.9c-1.2-1.9-4.4-6.8-5-7.7.1 1.1 0 2.3 0 3.9v3.9h-.6zM390 394.4h-4.3v3.5h4.7l-.1.6h-5.2v-8.4h5.1v.6h-4.5v3.1h4.3zM394.2 390.7h-2.8v-.6h6.3v.6h-2.8v7.8h-.7z"/></g><path d="m241.8 289.32-1.86-2.62c-3.17 6.52-9.26 7.9-15.19 8.87-9.82 1.61-19.72 2.69-29.61 3.82-10.95 1.25-21.94 2.15-32.87 3.52-3.86.48-7.05-.41-10.62-1.78-7.19-2.75-11.06-7.46-12.75-14.92-1.46-6.46-4.61-12.55-6.01-19.02-1.38-6.38-1.62-13.02-2.11-19.56-.63-8.22-.95-16.47-1.55-24.7-.14-1.95-.56-4.01-1.41-5.74-1.33-2.7-3.39-3.75-6.75-2.82-11.23 3.09-22.57 5.76-33.83 8.72-2.32.61-4.57 1.59-6.73 2.67-7.58 3.76-14.94 7.98-22.68 11.36-7.26 3.17-14.81 1.39-22.15-.45-.72-.18-1.47-1.15-1.79-1.93-2.76-6.8-1.26-13.12 3.32-18.37 7.18-8.22 14.84-16.03 22.39-23.91.71-.74 2.22-1.25 3.22-1.07 7.72 1.34 14.64.16 20.81-5.14 3.52-3.02 7.52-5.52 11.43-8.05 1.12-.72 2.76-1.2 4.05-1 3.97.6 7.84 1.78 11.81 2.36 2.77.4 5.73.7 8.41.13 3.85-.83 6.34-3.23 6.73-7.69 1.34-15.31 6.26-29.77 10.69-44.36 1.56-5.13 2.4-10.5 3.21-15.82.98-6.46 5.42-11.44 11.91-12.04 3.97-.37 8.05-.2 12 .29 3.79.48 7.72.88 10.27 4.7 3.18 4.75 5.22 9.7 4.54 15.48-1.14 9.86-3.68 19.5-3.53 29.6.07 4.78-2.48 9.56-3.58 14.41-.35 1.56-.18 3.44.37 4.95.9 2.43 2.7 3.85 5.64 3.55 14.65-1.44 29.34-2.52 43.77-5.72 2.56-.57 3.95-1.56 4.81-4.12 3.86-11.47 5.13-23.35 6.04-35.3.5-6.59 1.47-13.03 4.97-18.85 3.53-5.89 8.72-9.39 15.29-10.98.87-.21 1.91-.18 2.75.09 10.76 3.52 19.36 14.01 19.35 25.11-.01 5.69-2 11.4-3.21 17.07-.48 2.27-1.39 4.45-1.87 6.73-.95 4.46.01 8.56 3.52 11.56 1.47 1.26 3.67 2.24 5.58 2.31 20.54.79 41.1 1.22 61.63 2.14 5.09.23 10.35 1.25 15.1 3.04 5.23 1.98 8.68 5.99 7.35 12.39-.28 1.34-.51 2.77-.36 4.11.44 3.92-1.96 5.4-5.13 5.72-5.03.51-10.11 1.04-15.14.8-11.62-.55-23.2-2.45-34.87-.81-.52.07-1.14.21-1.58.02-8.9-3.89-18.01.57-27.04-.67-5.17-.71-9.32 3.19-10.64 9.42-1.03 4.83-1.16 9.86-1.6 14.81-.99 11.27-3.68 22.15-7.96 32.6-4.44 10.85-7.21 22.09-8.99 33.66-.68 4.74-3.41 8.49-7.55 11.43zm-76.08-28.65c1.81 1.5 3.36 3.87 5.12 4.04 8.85.87 17.75 1.38 26.64 1.57 6.18.13 11.89-1.96 16.82-5.77.91-.7 1.87-1.88 2.02-2.95 2.33-16.47 4.64-32.94 6.73-49.44.89-7.07-3.68-11.68-10.73-11.19-4.86.34-9.71.83-14.54 1.4-10.51 1.25-20.63 3.77-29.66 9.58-.89.57-1.92 1.52-2.13 2.47-2.42 10.71-3.85 21.56-1.85 32.44.87 4.76 3.17 9.26 4.95 14.22-.67.7-1.73 1.85-3.37 3.63z" fill="#010104"/></svg>