<svg version="1.1" id="图层_1" xmlns="http://www.w3.org/2000/svg" x="0" y="0" viewBox="0 0 1764 1351" style="enable-background:new 0 0 1764 1351" xml:space="preserve"><style>.st1{fill:#d15d64}.st2{fill:#fcd05c}.st3{fill:none;stroke:#7b63ab;stroke-width:1.097;stroke-linecap:round;stroke-linejoin:round}.st4{fill:#e98333}.st5{fill:none;stroke:#e98333;stroke-width:1.097;stroke-linecap:round;stroke-linejoin:round}.st6{fill:#00a959}.st7{fill:#7b63ab}.st9{fill:#fff}.st11{fill:none;stroke:#00a959;stroke-width:1.097;stroke-linecap:round;stroke-linejoin:round}.st16{opacity:.5}.st17{fill:#dbe7f0}.st18{fill:#27363a}.st19{fill:#4d595d}.st20{fill:none;stroke:#dbe7f0;stroke-width:1.097;stroke-linecap:round;stroke-linejoin:round}</style><g style="opacity:.2"><path class="st1" d="m718 92.1 2.8 1.5c.2.1.3.3.2.5 0 .1-.1.1-.2.2l-2.8 1.5c-.1 0-.1.1-.2.2l-1.5 2.8c-.1.2-.3.3-.5.2-.1 0-.1-.1-.2-.2l-1.5-2.8c0-.1-.1-.1-.2-.2l-2.8-1.5c-.2-.1-.3-.3-.2-.5 0-.1.1-.1.2-.2l2.8-1.5c.1 0 .1-.1.2-.2l1.5-2.8c.1-.2.3-.3.5-.2.1 0 .1.1.2.2l1.5 2.8c.1.1.1.2.2.2"/><path class="st2" d="m239.1 166.7 1.4.7c.2.1.3.3.2.5 0 .1-.1.1-.2.2l-1.4.7c-.1 0-.1.1-.2.2l-.7 1.4c-.1.2-.3.3-.5.2-.1 0-.1-.1-.2-.2l-.7-1.4c0-.1-.1-.1-.2-.2l-1.4-.7c-.2-.1-.3-.3-.2-.5 0-.1.1-.1.2-.2l1.4-.7c.1 0 .1-.1.2-.2l.7-1.4c.1-.2.3-.3.5-.2.1 0 .1.1.2.2l.7 1.4c0 .1.1.2.2.2"/><path class="st3" d="m409.5 108-1.5 1.5m5.5-5.5-1.5 1.5m-2.5 2.7c.7.7 1.9.7 2.6 0 .7-.7.7-1.9 0-2.6s-1.9-.7-2.6 0c-.7.7-.7 1.8 0 2.6h0z"/><path class="st1" d="m962 138.1 2.8 1.5c.2.1.3.3.2.5 0 .1-.1.1-.2.2l-2.8 1.5c-.1 0-.1.1-.2.2l-1.5 2.8c-.1.2-.3.3-.5.2-.1 0-.1-.1-.2-.2l-1.5-2.8c0-.1-.1-.1-.2-.2l-2.8-1.5c-.2-.1-.3-.3-.2-.5 0-.1.1-.1.2-.2l2.8-1.5c.1 0 .1-.1.2-.2l1.5-2.8c.1-.2.3-.3.5-.2.1 0 .1.1.2.2l1.5 2.8c.1.1.1.2.2.2"/><path class="st4" d="m1145 177.1 2.8 1.5c.2.1.3.3.2.5 0 .1-.1.1-.2.2l-2.8 1.5c-.1 0-.1.1-.2.2l-1.5 2.8c-.1.2-.3.3-.5.2-.1 0-.1-.1-.2-.2l-1.5-2.8c0-.1-.1-.1-.2-.2l-2.8-1.5c-.2-.1-.3-.3-.2-.5 0-.1.1-.1.2-.2l2.8-1.5c.1 0 .1-.1.2-.2l1.5-2.8c.1-.2.3-.3.5-.2.1 0 .1.1.2.2l1.5 2.8c.1.1.1.2.2.2"/><path class="st2" d="m1083.1 100.7 1.4.7c.2.1.3.3.2.5 0 .1-.1.1-.2.2l-1.4.7c-.1 0-.1.1-.2.2l-.7 1.4c-.1.2-.3.3-.5.2-.1 0-.1-.1-.2-.2l-.7-1.4c0-.1-.1-.1-.2-.2l-1.4-.7c-.2-.1-.3-.3-.2-.5 0-.1.1-.1.2-.2l1.4-.7c.1 0 .1-.1.2-.2l.7-1.4c.1-.2.3-.3.5-.2.1 0 .1.1.2.2l.7 1.4c0 .1.1.2.2.2"/><path class="st1" d="M1206.8 253.9c0 1.6-1.3 2.9-2.9 2.9-1.6 0-2.9-1.3-2.9-2.9s1.3-2.9 2.9-2.9c1.6 0 2.9 1.3 2.9 2.9M115 319.1l2.8 1.5c.2.1.3.3.2.5 0 .1-.1.1-.2.2l-2.8 1.5c-.1 0-.1.1-.2.2l-1.5 2.8c-.1.2-.3.3-.5.2-.1 0-.1-.1-.2-.2l-1.5-2.8c0-.1-.1-.1-.2-.2l-2.8-1.5c-.2-.1-.3-.3-.2-.5 0-.1.1-.1.2-.2l2.8-1.5c.1 0 .1-.1.2-.2l1.5-2.8c.1-.2.3-.3.5-.2.1 0 .1.1.2.2l1.5 2.8c.1.1.1.2.2.2"/><path class="st2" d="m206.1 452.7 1.4.7c.2.1.3.3.2.5 0 .1-.1.1-.2.2l-1.4.7c-.1 0-.1.1-.2.2l-.7 1.4c-.1.2-.3.3-.5.2-.1 0-.1-.1-.2-.2l-.7-1.4c0-.1-.1-.1-.2-.2l-1.4-.7c-.2-.1-.3-.3-.2-.5 0-.1.1-.1.2-.2l1.4-.7c.1 0 .1-.1.2-.2l.7-1.4c.1-.2.3-.3.5-.2.1 0 .1.1.2.2l.7 1.4c0 .1.1.2.2.2"/><path class="st1" d="m1662 527.1 2.8 1.5c.2.1.3.3.2.5 0 .1-.1.1-.2.2l-2.8 1.5c-.1 0-.1.1-.2.2l-1.5 2.8c-.1.2-.3.3-.5.2-.1 0-.1-.1-.2-.2l-1.5-2.8c0-.1-.1-.1-.2-.2l-2.8-1.5c-.2-.1-.3-.3-.2-.5 0-.1.1-.1.2-.2l2.8-1.5c.1 0 .1-.1.2-.2l1.5-2.8c.1-.2.3-.3.5-.2.1 0 .1.1.2.2l1.5 2.8c.1.1.1.2.2.2m-285.1-426.5 1.3.7c.3.1.3.5 0 .7l-1.3.7c-.1 0-.1.1-.2.1l-.7 1.3c-.1.2-.3.2-.5.1-.1 0-.1-.1-.1-.1l-.7-1.3c0-.1-.1-.1-.2-.1l-1.3-.7c-.2-.1-.2-.3-.1-.5 0-.1.1-.1.1-.1l1.3-.7c.1 0 .1-.1.2-.2l.7-1.3c.1-.2.3-.3.5-.2.1 0 .1.1.2.2l.7 1.3c0 .1 0 .1.1.1"/><path class="st2" d="m1634.1 382.7 1.4.7c.2.1.3.3.2.5 0 .1-.1.1-.2.2l-1.4.7c-.1 0-.1.1-.2.2l-.7 1.4c-.1.2-.3.3-.5.2-.1 0-.1-.1-.2-.2l-.7-1.4c0-.1-.1-.1-.2-.2l-1.4-.7c-.2-.1-.3-.3-.2-.5 0-.1.1-.1.2-.2l1.4-.7c.1 0 .1-.1.2-.2l.7-1.4c.1-.2.3-.3.5-.2.1 0 .1.1.2.2l.7 1.4c0 .1.1.2.2.2"/><path class="st5" d="m411 385.9 3.6-.9-.9 3.6-2.7-2.7z"/><path class="st6" d="m522.2 503 2 1.1-2 1.1-1.1 2-1.1-2-2-1.1 2-1.1 1.1-2 1.1 2z"/><path class="st4" d="m531 40.1 2.8 1.5c.2.1.3.3.2.5 0 .1-.1.1-.2.2l-2.8 1.5c-.1 0-.1.1-.2.2l-1.5 2.8c-.1.2-.3.3-.5.2-.1 0-.1-.1-.2-.2l-1.5-2.8c0-.1-.1-.1-.2-.2l-2.8-1.5c-.2-.1-.3-.3-.2-.5 0-.1.1-.1.2-.2l2.8-1.5c.1 0 .1-.1.2-.2l1.5-2.8c.1-.2.3-.3.5-.2.1 0 .1.1.2.2l1.5 2.8c.1.1.1.2.2.2"/><path class="st3" d="m653.9 202.3-.8-1.6c0-.1-.1-.1-.2-.2l-1.6-.8c-.2-.1-.3-.4-.2-.6 0-.1.1-.1.2-.2l1.6-.8c.1 0 .1-.1.2-.2l.8-1.6c.1-.2.4-.3.6-.2.1 0 .1.1.2.2l.8 1.6c0 .1.1.1.2.2l1.6.8c.3.2.3.6 0 .8l-1.6.8c-.1 0-.1.1-.2.2l-.8 1.6c-.1.2-.4.3-.6.2l-.2-.2h0z"/><path class="st1" d="m594 161.1 2.8 1.5c.2.1.3.3.2.5 0 .1-.1.1-.2.2l-2.8 1.5c-.1 0-.1.1-.2.2l-1.5 2.8c-.1.2-.3.3-.5.2-.1 0-.1-.1-.2-.2l-1.5-2.8c0-.1-.1-.1-.2-.2l-2.8-1.5c-.2-.1-.3-.3-.2-.5 0-.1.1-.1.2-.2l2.8-1.5c.1 0 .1-.1.2-.2l1.5-2.8c.1-.2.3-.3.5-.2.1 0 .1.1.2.2l1.5 2.8c.1.1.1.2.2.2"/><path class="st4" d="m178 127.1 2.8 1.5c.2.1.3.3.2.5 0 .1-.1.1-.2.2l-2.8 1.5c-.1 0-.1.1-.2.2l-1.5 2.8c-.1.2-.3.3-.5.2-.1 0-.1-.1-.2-.2l-1.5-2.8c0-.1-.1-.1-.2-.2l-2.8-1.5c-.2-.1-.3-.3-.2-.5 0-.1.1-.1.2-.2l2.8-1.5c.1 0 .1-.1.2-.2l1.5-2.8c.1-.2.3-.3.5-.2.1 0 .1.1.2.2l1.5 2.8c.1.1.1.2.2.2"/><path class="st1" d="M299.8 56.9c0 1.6-1.3 2.9-2.9 2.9s-2.9-1.3-2.9-2.9 1.3-2.9 2.9-2.9 2.9 1.3 2.9 2.9"/><path class="st3" d="m50.9 205.3-.8-1.6c0-.1-.1-.1-.2-.2l-1.6-.8c-.2-.1-.3-.4-.2-.6 0-.1.1-.1.2-.2l1.6-.8c.1 0 .1-.1.2-.2l.8-1.6c.1-.2.4-.3.6-.2.1 0 .1.1.2.2l.8 1.6c0 .1.1.1.2.2l1.6.8c.3.2.3.6 0 .8l-1.6.8c-.1 0-.1.1-.2.2l-.8 1.6c-.1.2-.4.3-.6.2l-.2-.2h0z"/><path class="st1" d="m1691 261.1 2.8 1.5c.2.1.3.3.2.5 0 .1-.1.1-.2.2l-2.8 1.5c-.1 0-.1.1-.2.2l-1.5 2.8c-.1.2-.3.3-.5.2-.1 0-.1-.1-.2-.2l-1.5-2.8c0-.1-.1-.1-.2-.2l-2.8-1.5c-.2-.1-.3-.3-.2-.5 0-.1.1-.1.2-.2l2.8-1.5c.1 0 .1-.1.2-.2l1.5-2.8c.1-.2.3-.3.5-.2.1 0 .1.1.2.2l1.5 2.8c.1.1.1.2.2.2"/><path class="st7" d="m1637.1 223.7 1.4.7c.2.1.3.3.2.5 0 .1-.1.1-.2.2l-1.4.7c-.1 0-.1.1-.2.2l-.7 1.4c-.1.2-.3.3-.5.2-.1 0-.1-.1-.2-.2l-.7-1.4c0-.1-.1-.1-.2-.2l-1.4-.7c-.2-.1-.3-.3-.2-.5 0-.1.1-.1.2-.2l1.4-.7c.1 0 .1-.1.2-.2l.7-1.4c.1-.2.3-.3.5-.2.1 0 .1.1.2.2l.7 1.4c0 .1.1.2.2.2"/><path class="st1" d="m1611.9 48.6 1.3.7c.3.1.3.5 0 .7l-1.3.7c-.1 0-.1.1-.2.2l-.7 1.3c-.1.2-.3.2-.5.1-.1 0-.1-.1-.1-.1l-.7-1.3c0-.1-.1-.1-.2-.2l-1.3-.7c-.2-.1-.3-.3-.2-.5 0-.1.1-.1.2-.2l1.3-.7c.1 0 .1-.1.2-.2l.7-1.3c.1-.2.3-.3.5-.2.1 0 .1.1.2.2l.7 1.3c0 .2 0 .2.1.2"/><path class="st2" d="m1663.1 116.7 1.4.7c.2.1.3.3.2.5 0 .1-.1.1-.2.2l-1.4.7c-.1 0-.1.1-.2.2l-.7 1.4c-.1.2-.3.3-.5.2-.1 0-.1-.1-.2-.2l-.7-1.4c0-.1-.1-.1-.2-.2l-1.4-.7c-.2-.1-.3-.3-.2-.5 0-.1.1-.1.2-.2l1.4-.7c.1 0 .1-.1.2-.2l.7-1.4c.1-.2.3-.3.5-.2.1 0 .1.1.2.2l.7 1.4c0 .1.1.2.2.2"/><g transform="translate(1580 434)"><defs><filter id="Adobe_OpacityMaskFilter" filterUnits="userSpaceOnUse" x=".6" y=".1" width="5.6" height="5.6"><feColorMatrix values="1 0 0 0 0 0 1 0 0 0 0 0 1 0 0 0 0 0 1 0"/></filter></defs><mask maskUnits="userSpaceOnUse" x=".6" y=".1" width="5.6" height="5.6" id="b_00000172429198101083329210000014045200196511903131_"><g style="filter:url(#Adobe_OpacityMaskFilter)"><path id="a_00000177454555661295563640000004625041268710500760_" class="st9" d="M6.2.1v5.6H.6V.1h5.6z"/></g></mask><path d="m4.7 1.8 1.3.7c.2.1.3.3.2.5 0 .1-.1.1-.2.2L4.7 4c-.1 0-.2.1-.2.1l-.7 1.4c-.1.2-.4.2-.6.1-.1 0-.1-.1-.2-.2l-.7-1.3-.1-.1-1.4-.8c-.2-.1-.2-.3-.1-.5 0-.1.1-.1.2-.2l1.4-.7c.1 0 .1-.1.2-.2L3.2.2c0-.1.2-.2.4-.1.1 0 .1.1.2.2l.7 1.4s.1.1.2.1" style="mask:url(#b_00000172429198101083329210000014045200196511903131_);fill:#7b63ab"/></g><path class="st2" d="m1385 483.1 2.8 1.5c.2.1.3.3.2.5 0 .1-.1.1-.2.2l-2.8 1.5c-.1 0-.1.1-.2.2l-1.5 2.8c-.1.2-.3.3-.5.2-.1 0-.1-.1-.2-.2l-1.5-2.8c0-.1-.1-.1-.2-.2l-2.8-1.5c-.2-.1-.3-.3-.2-.5 0-.1.1-.1.2-.2l2.8-1.5c.1 0 .1-.1.2-.2l1.5-2.8c.1-.2.3-.3.5-.2.1 0 .1.1.2.2l1.5 2.8c.1.1.1.2.2.2"/><path class="st1" d="m1273.9 338.6 1.3.7c.3.1.3.5 0 .7l-1.3.7c-.1 0-.1.1-.2.1l-.7 1.3c-.1.2-.3.2-.5.1-.1 0-.1-.1-.1-.1l-.7-1.3c0-.1-.1-.1-.2-.1l-1.3-.7c-.2-.1-.2-.3-.1-.5 0-.1.1-.1.1-.1l1.3-.7c.1 0 .1-.1.2-.1l.7-1.3c.1-.2.3-.3.5-.2.1 0 .1.1.2.2l.7 1.3h.1"/><path class="st2" d="m1494.1 406.7 1.4.7c.2.1.3.3.2.5 0 .1-.1.1-.2.2l-1.4.7c-.1 0-.1.1-.2.2l-.7 1.4c-.1.2-.3.3-.5.2-.1 0-.1-.1-.2-.2l-.7-1.4c0-.1-.1-.1-.2-.2l-1.4-.7c-.2-.1-.3-.3-.2-.5 0-.1.1-.1.2-.2l1.4-.7c.1 0 .1-.1.2-.2l.7-1.4c.1-.2.3-.3.5-.2.1 0 .1.1.2.2l.7 1.4c0 .1.1.2.2.2"/><path class="st11" d="m1712 450.5 1.8-.5 1.8.5-.5-1.8.5-1.8-1.8.5-1.8-.5.5 1.8-.5 1.8z"/><g transform="translate(1598 622)"><defs><filter id="Adobe_OpacityMaskFilter_00000176022784366080667030000006294885002500072364_" filterUnits="userSpaceOnUse" x=".7" y=".7" width="9.9" height="9.9"><feColorMatrix values="1 0 0 0 0 0 1 0 0 0 0 0 1 0 0 0 0 0 1 0"/></filter></defs><mask maskUnits="userSpaceOnUse" x=".7" y=".7" width="9.9" height="9.9" id="d_00000103246229673141837460000007732095528915500161_"><g style="filter:url(#Adobe_OpacityMaskFilter_00000176022784366080667030000006294885002500072364_)"><path id="c_00000140712405295808001810000005391039553063480969_" class="st9" d="M.7.7h9.9v9.9H.7V.7z"/></g></mask><path d="m7.6 3.8 2.8 1.5c.2.1.3.3.2.5 0 .1-.1.1-.2.2L7.6 7.5c-.1 0-.1.1-.2.2L6 10.4c-.1.2-.3.3-.5.2-.1 0-.1-.1-.2-.2L3.8 7.7c0-.1-.1-.1-.2-.2L.9 6c-.2-.1-.3-.3-.2-.5 0-.1.1-.1.2-.2l2.8-1.5c.1 0 .1-.1.2-.2L5.4.8c.1-.2.3-.3.5-.2.1 0 .1.1.2.2l1.5 2.8c-.1.1 0 .2 0 .2" style="mask:url(#d_00000103246229673141837460000007732095528915500161_);fill:#d15d64"/></g><path class="st5" d="m70.5 513-1.5 1.5m5.5-5.5-1.5 1.5m-2.5 2.7c.7.7 1.9.7 2.6 0 .7-.7.7-1.9 0-2.6s-1.9-.7-2.6 0c-.7.7-.7 1.8 0 2.6z"/><path class="st2" d="m239.1 1200.9 1.4-.7c.2-.1.3-.3.2-.5 0-.1-.1-.1-.2-.2l-1.4-.7c-.1 0-.1-.1-.2-.2l-.7-1.4c-.1-.2-.3-.3-.5-.2-.1 0-.1.1-.2.2l-.7 1.4c0 .1-.1.1-.2.2l-1.4.7c-.2.1-.3.3-.2.5 0 .1.1.1.2.2l1.4.7c.1 0 .1.1.2.2l.7 1.4c.1.3.5.3.7 0l.7-1.4c0-.1.1-.2.2-.2"/><path class="st1" d="M1206.8 1132.9c0-1.6-1.3-2.9-2.9-2.9-1.6 0-2.9 1.3-2.9 2.9 0 1.6 1.3 2.9 2.9 2.9 1.6 0 2.9-1.3 2.9-2.9M115 1035.8l2.8-1.5c.2-.1.3-.3.2-.5 0-.1-.1-.1-.2-.2l-2.8-1.5c-.1 0-.1-.1-.2-.2l-1.5-2.8c-.1-.2-.3-.3-.5-.2-.1 0-.1.1-.2.2l-1.5 2.8c0 .1-.1.1-.2.2l-2.8 1.5c-.2.1-.3.3-.2.5 0 .1.1.1.2.2l2.8 1.5c.1 0 .1.1.2.2l1.5 2.8c.2.3.5.3.7 0l1.5-2.8.2-.2"/><path class="st2" d="m206.1 793.9 1.4-.7c.2-.1.3-.3.2-.5 0-.1-.1-.1-.2-.2l-1.4-.7c-.1 0-.1-.1-.2-.2l-.7-1.4c-.1-.2-.3-.3-.5-.2-.1 0-.1.1-.2.2l-.7 1.4c0 .1-.1.1-.2.2l-1.4.7c-.2.1-.3.3-.2.5 0 .1.1.1.2.2l1.4.7c.1 0 .1.1.2.2l.7 1.4c.1.3.5.3.7 0l.7-1.4c0-.1.1-.2.2-.2"/><path class="st1" d="m1456 1061.8 2.8-1.5c.2-.1.3-.3.2-.5 0-.1-.1-.1-.2-.2l-2.8-1.5c-.1 0-.1-.1-.2-.2l-1.5-2.8c-.1-.2-.3-.3-.5-.2-.1 0-.1.1-.2.2l-1.5 2.8c0 .1-.1.1-.2.2l-2.8 1.5c-.2.1-.3.3-.2.5 0 .1.1.1.2.2l2.8 1.5c.1 0 .1.1.2.2l1.5 2.8c.2.3.5.3.7 0l1.5-2.8.2-.2"/><path class="st7" d="m1402.1 1085.9 1.4-.7c.2-.1.3-.3.2-.5 0-.1-.1-.1-.2-.2l-1.4-.7c-.1 0-.1-.1-.2-.2l-.7-1.4c-.1-.2-.3-.3-.5-.2-.1 0-.1.1-.2.2l-.7 1.4c0 .1-.1.1-.2.2l-1.4.7c-.2.1-.3.3-.2.5 0 .1.1.1.2.2l1.4.7c.1 0 .1.1.2.2l.7 1.4c.2.3.5.3.7 0l.7-1.4c0-.1.1-.2.2-.2"/><path class="st5" d="m411 894.7 3.6.9-.9-3.6-2.7 2.7z"/><path class="st6" d="m522.2 745.2 2-1.1-2-1.1-1.1-2-1.1 2-2 1.1 2 1.1 1.1 2 1.1-2z"/><path class="st4" d="m178 1225.8 2.8-1.5c.2-.1.3-.3.2-.5 0-.1-.1-.1-.2-.2l-2.8-1.5c-.1 0-.1-.1-.2-.2l-1.5-2.8c-.1-.2-.3-.3-.5-.2-.1 0-.1.1-.2.2l-1.5 2.8c0 .1-.1.1-.2.2l-2.8 1.5c-.2.1-.3.3-.2.5 0 .1.1.1.2.2l2.8 1.5c.1 0 .1.1.2.2l1.5 2.8c.1.3.5.3.7 0l1.5-2.8.2-.2"/><path class="st1" d="M299.8 1325.9c0-1.6-1.3-2.9-2.9-2.9s-2.9 1.3-2.9 2.9c0 1.6 1.3 2.9 2.9 2.9s2.9-1.3 2.9-2.9"/><path class="st3" d="m50.9 1174.2-.8 1.6c0 .1-.1.1-.2.2l-1.6.8c-.2.1-.3.4-.2.6 0 .1.1.1.2.2l1.6.8c.1 0 .1.1.2.2l.8 1.6c.2.3.6.3.8 0l.8-1.6c0-.1.1-.1.2-.2l1.6-.8c.2-.1.3-.4.2-.6 0-.1-.1-.1-.2-.2l-1.6-.8c-.1 0-.1-.1-.2-.2l-.8-1.6c-.1-.2-.4-.3-.6-.2l-.2.2h0z"/><path class="st1" d="m1691 1110.8 2.8-1.5c.2-.1.3-.3.2-.5 0-.1-.1-.1-.2-.2l-2.8-1.5c-.1 0-.1-.1-.2-.2l-1.5-2.8c-.1-.2-.3-.3-.5-.2-.1 0-.1.1-.2.2l-1.5 2.8c0 .1-.1.1-.2.2l-2.8 1.5c-.2.1-.3.3-.2.5 0 .1.1.1.2.2l2.8 1.5c.1 0 .1.1.2.2l1.5 2.8c.2.3.5.3.7 0l1.5-2.8.2-.2"/><path class="st7" d="m1637.1 1155.9 1.4-.7c.2-.1.3-.3.2-.5 0-.1-.1-.1-.2-.2l-1.4-.7c-.1 0-.1-.1-.2-.2l-.7-1.4c-.1-.2-.3-.3-.5-.2-.1 0-.1.1-.2.2l-.7 1.4c0 .1-.1.1-.2.2l-1.4.7c-.2.1-.3.3-.2.5 0 .1.1.1.2.2l1.4.7c.1 0 .1.1.2.2l.7 1.4c.2.3.5.3.7 0l.7-1.4c0-.1.1-.2.2-.2"/><path class="st1" d="m1611.9 1349.7 1.3-.7c.2-.1.2-.3.1-.5 0-.1-.1-.1-.1-.1l-1.3-.7c-.1 0-.1-.1-.2-.2l-.7-1.3c-.1-.2-.3-.2-.5-.1-.1 0-.1.1-.1.1l-.7 1.3c0 .1-.1.1-.2.2l-1.3.7c-.2.1-.3.3-.2.5 0 .1.1.1.2.2l1.3.7c.1 0 .1.1.2.2l.7 1.3c.1.2.3.3.5.2.1 0 .1-.1.2-.2l.7-1.3c0-.2 0-.2.1-.3"/><path class="st2" d="m1663.1 1249.9 1.4-.7c.2-.1.3-.3.2-.5 0-.1-.1-.1-.2-.2l-1.4-.7c-.1 0-.1-.1-.2-.2l-.7-1.4c-.1-.2-.3-.3-.5-.2-.1 0-.1.1-.2.2l-.7 1.4c0 .1-.1.1-.2.2l-1.4.7c-.2.1-.3.3-.2.5 0 .1.1.1.2.2l1.4.7c.1 0 .1.1.2.2l.7 1.4c.2.3.5.3.7 0l.7-1.4c0-.1.1-.2.2-.2"/><g transform="matrix(1 0 0 -1 1587 986)"><defs><filter id="Adobe_OpacityMaskFilter_00000008119396157663425710000016914265287196416435_" filterUnits="userSpaceOnUse" x=".6" y="-5.7" width="5.6" height="5.6"><feColorMatrix values="1 0 0 0 0 0 1 0 0 0 0 0 1 0 0 0 0 0 1 0"/></filter></defs><mask maskUnits="userSpaceOnUse" x=".6" y="-5.7" width="5.6" height="5.6" id="f_00000183247740013899397200000002879274689718562442_"><g style="filter:url(#Adobe_OpacityMaskFilter_00000008119396157663425710000016914265287196416435_)"><path id="e_00000036240290193402257800000009728842084866488716_" class="st9" d="M6.2.1v5.6H.6V.1h5.6z"/></g></mask><path d="m4.7 1.8 1.3.7c.2.1.3.3.2.5 0 .1-.1.1-.2.2L4.7 4c-.1 0-.2.1-.2.1l-.7 1.4c-.1.2-.4.2-.6.1-.1 0-.1-.1-.2-.2l-.7-1.3-.1-.1-1.4-.8c-.2-.1-.2-.3-.1-.5 0-.1.1-.1.2-.2l1.4-.7c.1 0 .1-.1.2-.2L3.2.2c0-.1.2-.2.4-.1.1 0 .1.1.2.2l.7 1.4s.1.1.2.1" style="mask:url(#f_00000183247740013899397200000002879274689718562442_);fill:#7b63ab"/></g><path class="st3" d="m1164 915 2.8-2.8M1156 923l2.8-2.8m2.8-7.3c0-1-5.5 4.5-4.5 4.5-1 0 4.5 5.5 4.5 4.5 0 1 5.5-4.5 4.5-4.5 1 0-4.5-5.5-4.5-4.5h0z"/><path class="st2" d="m1385 770.8 2.8-1.5c.2-.1.3-.3.2-.5 0-.1-.1-.1-.2-.2l-2.8-1.5c-.1 0-.1-.1-.2-.2l-1.5-2.8c-.1-.2-.3-.3-.5-.2-.1 0-.1.1-.2.2l-1.5 2.8c0 .1-.1.1-.2.2l-2.8 1.5c-.2.1-.3.3-.2.5 0 .1.1.1.2.2l2.8 1.5c.1 0 .1.1.2.2l1.5 2.8c.2.3.5.3.7 0l1.5-2.8.2-.2"/><path class="st1" d="m1273.9 962.7 1.3-.7c.2-.1.2-.3.1-.5 0-.1-.1-.1-.1-.1l-1.3-.7c-.1 0-.1-.1-.2-.2l-.7-1.3c-.1-.2-.3-.2-.5-.1-.1 0-.1.1-.1.1l-.7 1.3c0 .1-.1.1-.2.2l-1.3.7c-.2.1-.3.3-.2.5 0 .1.1.1.2.2l1.3.7c.1 0 .1.1.2.2l.7 1.3c.1.2.3.3.5.2.1 0 .1-.1.2-.2l.7-1.3c0-.2 0-.2.1-.3"/><path class="st2" d="m1494.1 873.9 1.4-.7c.2-.1.3-.3.2-.5 0-.1-.1-.1-.2-.2l-1.4-.7c-.1 0-.1-.1-.2-.2l-.7-1.4c-.1-.2-.3-.3-.5-.2-.1 0-.1.1-.2.2l-.7 1.4c0 .1-.1.1-.2.2l-1.4.7c-.2.1-.3.3-.2.5 0 .1.1.1.2.2l1.4.7c.1 0 .1.1.2.2l.7 1.4c.2.3.5.3.7 0l.7-1.4c0-.1.1-.2.2-.2"/><path class="st11" d="m1712 812 1.8.5 1.8-.5-.5 1.8.5 1.8-1.8-.5-1.8.5.5-1.8-.5-1.8z"/><path class="st5" d="m70.5 721-1.5-1.5m5.5 5.5-1.5-1.5m-2.5-2.7c.7-.7 1.9-.7 2.6 0 .7.7.7 1.9 0 2.6s-1.9.7-2.6 0c-.7-.7-.7-1.8 0-2.6h0z"/><g class="st16"><path class="st17" d="M373.2 442.8c4.3 3.6 4.9 10 1.2 14.3-2.5 2.9-6.3 4.2-10.1 3.4-1.2 1.7-1.8 3.4-1.5 4.9.2.8-.4.7-.7.4-1.4-1.8-3-4.6-2.9-8.1-3.6-3.7-3.8-9.6-.5-13.6 3.8-4.4 10.3-4.9 14.5-1.3"/><path class="st18" d="M370.3 449.4h-1.2v-.6c0-.8-.7-3-1.8-3-.4 0-.7.2-.9.5-.2.2-.3.5-.3.9.1.9.2 1.4-.4 2-.6.7-.9.9-1.4.9h-1.2c-.6 0-1.2.6-1.2 1.2v2.4c0 .6.6 1.2 1.2 1.2h1l.9.5c.1.1.2.1.3.1h3.8c.7 0 1.7-.3 1.8-1.1l.6-3.6v-.1c0-.8-.5-1.3-1.2-1.3zm0 4.8c0 .4-.8.6-1.2.6h-3.8l-1-.6v-3.6c.8 0 1.3-.5 1.9-1.1.7-.8.7-1.5.5-2.5 0-.3.3-.6.6-.6.5 0 1.2 1.6 1.2 2.4v.6c0 .4.2.6.6.6h1.2c.4 0 .6.2.6.6l-.6 3.6z"/><path class="st19" d="M400.6 483.6c0-4.5-1.6-8.7-4.2-11.9-2.1-2.2-4.4-.8-5.1 9.5-.8 12.4-7.3 4.1-12.5 10-5.2 5.8-17.3-4.8-14.2 1.4 3.2 6 9.6 10.1 16.9 10.1 10.5 0 19.1-8.6 19.1-19.1"/><path class="st20" d="M381.4 464.5c10.6 0 19.1 8.6 19.1 19.1 0 10.6-8.6 19.1-19.1 19.1s-19.1-8.6-19.1-19.1c0-10.6 8.6-19.1 19.1-19.1h0z"/><path class="st20" d="M381.4 464.5c10.6 0 19.1 8.6 19.1 19.1 0 10.6-8.6 19.1-19.1 19.1s-19.1-8.6-19.1-19.1c0-10.6 8.6-19.1 19.1-19.1h0z"/><path class="st20" d="M363.8 476.1c3.7 1.6 8.1 3.1 11.8 3.1 7.6 0 9.3-4.6 18.3-4.8 1.6 0 3.1 0 4.4-.1M374 501.2c1.4-3.5 4.2-8.5 9.7-11.3 6.5-3.3 11.2-.6 16.1-.8"/><path class="st20" d="M365.4 493.9c2.9-.4 7.8-1.7 11.8-5.7 6.2-6.2 7.9-6.4 11.7-6.4 3.1 0 7.7 3.2 11.6 3.4m-26.8-19.1c4 .6 8.8 1.9 11.9 4.4 2.4 2 6.5 1.8 10.6 1m-26.4-3c1.5.3 2.8.7 3.7.9 2.9.9 5.5 1.3 4.7 3.3-.9 2.6-5.3 1.1-8.2.2-1-.3-2.1-.9-3.3-1.5m-4.2 10c3.8.5 9.1 1.8 9.7 4.8.4 2-3.9 3.2-8.7 3.8m13 12.1c3.3-3.5 11.5-10.6 21.1-8.3h0"/></g><g class="st16"><path class="st19" d="M1532.1 302.4c-40.5-52.8-44 39.2-122.5 23.7 22 27.9 56.1 45.8 94.4 45.8 66.4 0 120.2-53.8 120.2-120.2 0-39.4-18.9-74.3-48.2-96.2l-5 2c22 27.3-19.4 170.3-38.9 144.9"/><path class="st20" d="M1383.8 249.9c.1-7.8 1-15.8 2.7-23.6m42.4 119c-3-2.4-5.8-4.9-8.5-7.5m123.5 26.9c-9.9 3.5-20.2 5.7-30.7 6.5m104.1-158.5c1.5 4.5 2.8 9.1 3.8 13.8m-38.2-65.2c3.6 3.2 7 6.5 10.2 10.1m-109.4-38.1c7.6-1.3 15.3-1.9 23-1.7"/><path class="st18" d="M1429.2 347.4c4.5 4 10 7.7 16.6 10.8.3.1.5.3.7.6.7 1.1 3.4 4 4.3 4.9.2.2.4.3.6.4l8.8 3.2c.3.1.5.2.7.5l5.7 6.5c.4.4.9.6 1.5.5l6.1-1.1h.6l4.3 1c.2 0 .4.1.7 0l5-.9h.6l9.5 2c.3.1.7 0 1-.1l5-2.3c.2-.1.5-.2.7-.2h7.9c.3 0 .6-.1.9-.2l5-3.1c1.1-.7.6-2.3-.7-2.2l-3.9.1c-.3 0-.5 0-.8-.2l-9.5-4.5c-.3-.2-.7-.2-1.1-.1l-5.4 1.3c-.4.1-.8 0-1.1-.1l-15.3-7.6c-.2-.1-.3-.1-.5-.1l-12.3-1.8c-.3 0-.5-.1-.7-.3l-9.9-7.4c-.3-.2-.7-.3-1-.3l-11.7.3h-.4l-10.6-2.2c-1.5-.6-2.5 1.5-1.3 2.6"/><path class="st20" d="M1429.2 347.4c4.5 4 10 7.7 16.6 10.8.3.1.5.3.7.6.7 1.1 3.4 4 4.3 4.9.2.2.4.3.6.4l8.8 3.2c.3.1.5.2.7.5l5.7 6.5c.4.4.9.6 1.5.5l6.1-1.1h.6l4.3 1c.2 0 .4.1.7 0l5-.9h.6l9.5 2c.3.1.7 0 1-.1l5-2.3c.2-.1.5-.2.7-.2h7.9c.3 0 .6-.1.9-.2l5-3.1c1.1-.7.6-2.3-.7-2.2l-3.9.1c-.3 0-.5 0-.8-.2l-9.5-4.5c-.3-.2-.7-.2-1.1-.1l-5.4 1.3c-.4.1-.8 0-1.1-.1l-15.3-7.6c-.2-.1-.3-.1-.5-.1l-12.3-1.8c-.3 0-.5-.1-.7-.3l-9.9-7.4c-.3-.2-.7-.3-1-.3l-11.7.3h-.4l-10.6-2.2c-1.5-.6-2.5 1.5-1.3 2.6h0z"/><path class="st18" d="M1595.7 171.7c8.5 9.6 19.7 26.2 22.9 39.2.1.5 0 1.1-.4 1.5-3.7 3.9-21.4 20.3-23.3 22-.1.1-.2.2-.4.3l-10.5 5.1c-.1.1-.3.1-.4.1l-5.5 1.1c-.4.1-.8.3-1 .7l-6.5 9.3c-.5.7-1.4.9-2.1.5l-24.4-13.6c-.4-.2-.7-.7-.8-1.2l-3.1-20c-.1-.7.2-1.3.8-1.7l15.9-8.9c.4-.2.7-.6.8-1l6.7-27c.2-.6.6-1.1 1.3-1.2l28.7-5.7c.4-.2 1 0 1.3.5"/><path class="st20" d="M1595.7 171.7c8.5 9.6 19.7 26.2 22.9 39.2.1.5 0 1.1-.4 1.5-3.7 3.9-21.4 20.3-23.3 22-.1.1-.2.2-.4.3l-10.5 5.1c-.1.1-.3.1-.4.1l-5.5 1.1c-.4.1-.8.3-1 .7l-6.5 9.3c-.5.7-1.4.9-2.1.5l-24.4-13.6c-.4-.2-.7-.7-.8-1.2l-3.1-20c-.1-.7.2-1.3.8-1.7l15.9-8.9c.4-.2.7-.6.8-1l6.7-27c.2-.6.6-1.1 1.3-1.2l28.7-5.7c.4-.2 1 0 1.3.5h0z"/><path class="st18" d="M1383.8 277.4c-1.9-8.6-2.7-17.4-2.6-26.2 0-1.4 1.7-2.1 2.7-1.2l7.9 6.6c.3.3.8.4 1.2.4l12.9-1.5c.4 0 .7 0 1.1.2l15.9 9.9c.2.1.4.2.5.2l16.2 3.2c.4.1.8 0 1.1-.2l14-7.5c.7-.4 1.5-.2 2 .4l10.2 11.4c.2.3.4.6.4 1l1.9 27.8c0 .5-.2 1-.5 1.3l-13.4 12.2c-.2.2-.4.5-.5.8l-3.9 13.9c-.2.6-.7 1.1-1.3 1.2l-16.9 2.5h-.5l-7.2-1c-.7-.1-1.3.2-1.6.8-.5.9-1.4 2.3-2.1 3.5-.5.8-1.5 1-2.3.6-.1-.1-.2-.1-.3-.2-7.5-6.7-13.8-14.1-19-22h21.6c7 0-3.5-3.7-11-3.2-1 .1-2 .1-3 .2-.2-2.4-2.8-6.5-8.6-6.6.4-.6.8-1.2 1.1-1.9 11.4-18.9-3.4-28.7-16-26.6z"/><path class="st20" d="M1399.8 315.4c5.2 7.9 11.5 15.3 19 22 .7.6 1.7.6 2.3-.1.1-.1.1-.2.2-.3.7-1.2 1.5-2.6 2.1-3.5.3-.6 1-.9 1.6-.8l7.2 1h.5l16.9-2.5c.6-.1 1.2-.6 1.3-1.2l3.9-13.9c.1-.3.2-.6.5-.8l13.4-12.2c.4-.3.6-.8.5-1.3l-1.9-27.8c0-.4-.2-.7-.4-1l-10.2-11.4c-.5-.6-1.3-.7-2-.4l-14 7.5c-.3.2-.7.2-1.1.2l-16.2-3.2c-.2 0-.4-.1-.5-.2l-15.9-9.9c-.3-.2-.7-.3-1.1-.2l-12.9 1.5c-.4.1-.9-.1-1.2-.4l-7.9-6.6c-1.1-.9-2.7-.2-2.7 1.2-.1 8.8.7 17.6 2.6 26.2m98-145.4c-40.3 6.9-84.5 37.8-96.6 92.7-.3 1.2.8 2.2 2 2 1.2-.3 2.6-.6 3.5-.8.6-.1 1.2 0 1.6.5l9 10c.4.4 1 .6 1.6.5l23.5-5c.4-.1.8-.3 1-.6l14.7-20.4c.4-.6.4-1.5-.1-2l-7.5-8.4c-.3-.4-.5-.9-.4-1.4l2.4-13.2c.1-.5.4-1 .9-1.2l14.2-6.5c.8-.4 1.8 0 2.2.8.1.2.1.4.1.6l.7 11.1c0 .4.2.8.5 1.1l19.4 18.4c.4.4 1 .5 1.5.4l16.5-4.4c.2 0 .3-.1.5-.1 2.1.1 17.4.8 17.6.3.2-.5 1.7-16 2-18.7 0-.3.1-.5.3-.8l9.5-13.7c.4-.6.4-1.4-.1-2l-16.1-19.3c-.2-.2-.4-.4-.7-.5l-19.9-7.7c-.6-.2-.9-.7-1-1.3-.3-1.9-.8-6.3-1-8.9-.1-.9-.9-1.6-1.8-1.5.1-.1.1 0 0 0h0z"/><path class="st18" d="m1620.3 227.3-4.9 11.1c-.2.4-.6.8-1 .9l-12.2 3.6c-.3.1-.5.2-.7.5l-10.9 11.8c-.3.4-.5.8-.4 1.3l2.1 16.6c.1.5-.1.9-.4 1.3l-9.2 10.6c-.3.4-.8.6-1.3.6l-16.4-.6c-.9 0-1.6.7-1.7 1.5l-1.1 19.2c0 .2-.1.4-.1.6l-7.6 17.1c-.2.4-.2.9 0 1.3l6 14.8c.2.5.2 1-.1 1.4l-8.3 14.7c-.1.1-.2.3-.3.4-.8.8-4.7 4.5-7.5 7.4-1.1 1.2 0 3.1 1.6 2.7 26.2-6.3 91.2-51.3 77.6-138.5-.3-1.5-2.5-1.8-3.2-.3"/><path class="st20" d="m1620.3 227.3-4.9 11.1c-.2.4-.6.8-1 .9l-12.2 3.6c-.3.1-.5.2-.7.5l-10.9 11.8c-.3.4-.5.8-.4 1.3l2.1 16.6c.1.5-.1.9-.4 1.3l-9.2 10.6c-.3.4-.8.6-1.3.6l-16.4-.6c-.9 0-1.6.7-1.7 1.5l-1.1 19.2c0 .2-.1.4-.1.6l-7.6 17.1c-.2.4-.2.9 0 1.3l6 14.8c.2.5.2 1-.1 1.4l-8.3 14.7c-.1.1-.2.3-.3.4-.8.8-4.7 4.5-7.5 7.4-1.1 1.2 0 3.1 1.6 2.7 26.2-6.3 91.2-51.3 77.6-138.5-.3-1.5-2.5-1.8-3.2-.3h0zm-112-97.4 14.2-.8c.4 0 .8.1 1.1.3l2.2 1.7c.4.3.9.4 1.4.3l8.7-2.1c.4-.1.9 0 1.3.2l3.6 2.3c.3.2.8.3 1.2.2l5.5-1c.3-.1.6 0 .9.1l1.9.8c.4.1.7.4.8.8l1.8 3.6c.2.5.7.8 1.2.9l3.8.7c.4.1.7.3 1 .6l2.8 3.6c.1.1.2.2.4.3l6.4 4.3c.2.1.4.3.5.5.4.8 1.5 2.7 1.8 2.9.3.2 9.9 8.1 12.6 10.3.3.2.2.7-.2.8-.9.2-2.2.5-2.9.6-.2 0-.5 0-.7-.1l-8.7-4.1c-.1-.1-.2-.1-.3-.1l-9.5-2.2c-.2 0-.4-.1-.6 0l-9.6 1.3c-.4.1-.8 0-1.1-.3l-14.6-10c-.2-.1-.3-.2-.5-.2l-16.9-4.4c-.3-.1-.7-.3-.9-.6l-4.4-5.7c-.2-.2-.4-.4-.6-.5l-4.2-1.9c-1.6-.7-1.1-3 .6-3.1h0z"/><path class="st17" d="M1350.3 152.8c10.9-3.6 22.7 2.2 26.4 13.2 2.6 7.7.4 15.8-4.9 21.2 1.7 3.8 3.9 6.8 7 7.9 1.6.6.8 1.4-.1 1.5-4.6.5-11.3.3-17.3-3.7-10.3 2.3-20.8-3.5-24.3-13.7-3.6-10.9 2.3-22.8 13.2-26.4"/><path class="st18" d="M1363.8 167.3c-.7-.8-1.6-1.2-2.9-1.3-1.3 0-2.2.6-2.9 1.3-.2.2-.4.5-.6.6-.2.3-.6.3-.9.1l-.1-.1c-.2-.2-.3-.4-.6-.6-.7-.8-1.5-1.3-2.9-1.3-1.2.1-2.2.5-2.9 1.3-.7.8-1 1.7-1.1 2.6 0 .7.1 2 .9 3.5.7 1.5 2.9 3.7 6.6 6.7.2.2.6.2.8 0 3.7-3 5.9-5.2 6.6-6.7.8-1.5.9-2.9.9-3.5.2-.9-.2-1.8-.9-2.6z"/><path class="st20" d="M1616.8 204.9h69.6c11.2 0 6.4-4.1-7.7-2.9-.7.1-1.4.1-2.1.2-1.6-1.7-5.5-3.8-9.3-2.6-.6-4.6-8.2-10.1-15.4-5.3-.5-7.1-7.7-13.9-15.2-7.8 2.2-11.5-.8-24.2-18.3-22.6-10.8.9-15.7 6.5-17.2 13.2m-190.8 135.1c-1 .1-2 .1-3 .2-.2-2.4-2.8-6.5-8.6-6.6.4-.6.8-1.2 1.1-1.9 16.6-27.6-23-35.7-29.2-15.5-1.3 4.3-1.8 8.5-1.8 12.2-2-1.3-4.7-2.1-8.3-2.1-10 0-13.3 8.8-12.3 13-1.8-1.1-3.8-2.2-8.3-1.8-8.6.8-17.2 5.7-4.1 5.7h85.6c6.9 0-3.6-3.7-11.1-3.2h0z"/></g></g></svg>